<svg width="202" height="101" viewBox="0 0 202 101" fill="none" xmlns="http://www.w3.org/2000/svg">
<g clip-path="url(#clip0_16_6)">
<path d="M36.943 57.6621C36.0634 58.2438 35.3305 58.8982 34.5975 59.6253L14.9541 79.1121C12.9751 81.0753 12.9751 84.3473 14.9541 86.3106C15.9803 87.3285 17.2996 87.7648 18.5456 87.7648C19.7917 87.7648 21.1843 87.2558 22.1371 86.3106L41.7805 66.7511C42.5135 66.024 43.1732 65.2241 43.7595 64.4243L45.8118 61.3704L46.7647 61.734L46.0317 65.2969C45.8118 66.3148 45.7385 67.3328 45.7385 68.3507V95.6904C45.7385 98.4534 47.9374 100.926 50.7227 100.998C53.6545 101.071 56 98.7443 56 95.9085V50.5364V5.30962C56 2.54657 53.8011 0.074371 51.0159 0.00165918C48.084 -0.0710526 45.7385 2.25572 45.7385 5.09148V32.6493C45.7385 33.6672 45.8118 34.6852 46.0317 35.7031L46.7647 39.266L45.8118 39.6296L43.7595 36.5757C43.1732 35.7031 42.5135 34.976 41.7805 34.2489L22.1371 14.7622C20.1581 12.7989 16.8598 12.7989 14.8808 14.7622C12.9018 16.7254 12.9018 19.9974 14.8808 21.9606L34.5242 41.4474C35.2572 42.1745 36.0634 42.8289 36.8697 43.4106L39.9481 45.4465L39.5816 46.3918L35.9901 45.6647C34.964 45.4465 33.9378 45.3738 32.9117 45.3738H5.3523C2.56704 45.3738 0.0749687 47.5552 0.00167251 50.3182C-0.0716237 53.2267 2.27386 55.5535 5.13241 55.5535H32.9117C33.9378 55.5535 34.964 55.4808 35.9901 55.2626L39.5816 54.5355L39.9481 55.4808L36.943 57.6621Z" fill="#091C60"/>
<path d="M79.3457 53.3579H70.6386V98.0137H96.8285V89.988H79.3457V53.3579Z" fill="#091C60"/>
<path d="M108.689 66.8025H100.256V98.0821H108.689V66.8025Z" fill="#091C60"/>
<path d="M159.286 65.9097C150.648 65.9097 144.546 72.7006 144.546 82.4412C144.546 92.319 150.648 98.9728 159.424 98.9728C167.308 98.9728 171.97 94.5827 173.821 88.409H166.691C164.771 90.9471 162.989 91.9074 159.424 91.9074C155.79 91.9074 153.322 89.5752 152.979 84.9793H173.89V82.5098C173.958 72.5634 167.994 65.9097 159.286 65.9097ZM153.047 78.9428C153.459 75.3759 155.79 72.975 159.355 72.975C163.469 72.975 165.388 75.3759 165.8 78.9428H153.047Z" fill="#091C60"/>
<path d="M193.429 75.7188C193.635 76.0618 193.704 76.199 193.704 76.3362H201.657C200.491 69.408 194.732 65.9097 188.356 65.9097C181.5 65.9097 176.564 69.9568 176.564 75.3759C176.564 81.7553 182.254 83.5388 187.465 84.9793C191.03 86.0768 194.321 87.0371 194.252 89.5066C194.183 91.2215 192.332 92.0446 189.521 92.0446C186.505 92.0446 184.448 90.9471 183.214 88.3405H175.604C176.975 94.5827 181.774 98.9042 189.453 98.9042C197.063 98.9042 202.068 94.9942 201.999 89.1636C201.862 81.8239 195.418 79.9718 189.933 78.3941C186.71 77.4337 184.311 76.8164 184.311 75.2387C184.311 73.7982 185.888 72.7006 188.287 72.7692C190.618 72.7692 192.264 73.7296 193.429 75.7188Z" fill="#091C60"/>
<path d="M108.827 53.3579H100.257V61.3836H108.827V53.3579Z" fill="#091C60"/>
<path d="M136.388 66.8025L131.383 79.6985C130.698 81.482 130.149 83.2654 129.806 85.1175L129.121 89.2333H127.887L127.201 85.1175C126.858 83.2654 126.31 81.482 125.624 79.6985L120.619 66.8025H111.501L124.527 98.0821H132.274L145.301 66.8025H136.388Z" fill="#091C60"/>
<path d="M70.6396 47.9375H79.3467V29.0737H96.0068V21.391H79.3467V11.3074H97.2409V3.28174H70.6396V47.9375Z" fill="#091C60"/>
<path d="M108.69 16.6584H100.257V47.9381H108.69V16.6584Z" fill="#091C60"/>
<path d="M132.276 47.9381L145.302 16.6584H136.389L131.385 29.5544C130.699 31.3379 130.15 33.1214 129.808 34.9735L129.122 39.0892H127.888L127.202 34.9735C126.86 33.1214 126.311 31.3379 125.625 29.5544L120.621 16.6584H111.502L124.529 47.9381H132.276Z" fill="#091C60"/>
<path d="M108.827 3.28198H100.257V11.3077H108.827V3.28198Z" fill="#091C60"/>
<path d="M159.288 15.7666C150.649 15.7666 144.547 22.5576 144.547 32.2982C144.547 42.1759 150.649 48.8297 159.425 48.8297C167.309 48.8297 171.971 44.4396 173.823 38.266H166.692C164.773 40.804 162.99 41.7644 159.425 41.7644C155.791 41.7644 153.323 39.4321 152.98 34.8362H173.891V32.3668C173.96 22.4204 167.995 15.7666 159.288 15.7666ZM153.049 28.7998C153.46 25.2328 155.791 22.832 159.356 22.832C163.47 22.832 165.39 25.2328 165.801 28.7998H153.049Z" fill="#091C60"/>
</g>
<defs>
<clipPath id="clip0_16_6">
<rect width="202" height="101" fill="white"/>
</clipPath>
</defs>
</svg>
